<svg width="20" height="20" viewBox="0 0 20 20" fill="none" xmlns="http://www.w3.org/2000/svg">
<path d="M11.2658 2.14609C10.7866 2.2411 10.3392 2.45592 9.96535 2.77052C9.59154 3.08512 9.30348 3.48926 9.12803 3.94526L9.12741 3.94604C8.95066 4.40955 8.89606 4.91072 8.96883 5.40142C9.04161 5.89212 9.23932 6.35587 9.54298 6.74813L7.58182 12.1915C7.10082 12.2929 6.65358 12.5152 6.2823 12.8373C5.91102 13.1595 5.62795 13.571 5.45978 14.0329C5.29008 14.4999 5.24331 15.0027 5.32397 15.493C5.40462 15.9833 5.60999 16.4446 5.92035 16.8326L5.92556 16.8385C6.28129 17.268 6.97976 17.1537 7.17432 16.6191L7.71622 15.1321L8.45159 15.3997L7.90989 16.8862C7.71361 17.4255 8.18265 17.958 8.73209 17.8543L8.73529 17.8538C9.21455 17.7588 9.66194 17.544 10.0358 17.2294C10.4096 16.9148 10.6976 16.5107 10.8731 16.0547L10.8737 16.0539C11.0489 15.5954 11.1045 15.0999 11.0351 14.614C10.9657 14.1281 10.7737 13.6679 10.4771 13.2768L12.4527 7.80116C12.927 7.69574 13.367 7.4724 13.7321 7.15181C14.0972 6.83122 14.3755 6.42373 14.5413 5.96704C14.711 5.50004 14.7578 4.99724 14.6771 4.50695C14.5965 4.01665 14.3911 3.55533 14.0808 3.1673L14.0755 3.16139C13.7198 2.73192 13.0213 2.84626 12.8268 3.38079L12.2849 4.86784L11.5491 4.60038L12.0912 3.11374C12.2875 2.57447 11.8185 2.04188 11.269 2.14558L11.2658 2.14609ZM11.1507 3.09719L10.6593 4.44642C10.6261 4.53636 10.6111 4.63199 10.615 4.72778C10.619 4.82358 10.6419 4.91763 10.6824 5.00453C10.7229 5.09142 10.7803 5.16942 10.8511 5.23403C10.9219 5.29864 11.0049 5.34858 11.0951 5.38095L12.1311 5.75803C12.2211 5.79117 12.3167 5.80618 12.4125 5.80219C12.5082 5.7982 12.6023 5.77529 12.6891 5.73477C12.776 5.69426 12.854 5.63695 12.9186 5.56615C12.9833 5.49535 13.0332 5.41245 13.0656 5.32225L13.5575 3.97282C13.7235 4.25949 13.8159 4.58284 13.8264 4.91394C13.8368 5.24505 13.7651 5.57359 13.6176 5.87019C13.47 6.16679 13.2513 6.4222 12.9809 6.61357C12.7105 6.80495 12.3968 6.92633 12.0681 6.96685C11.9866 6.97693 11.9095 7.00937 11.8454 7.06058C11.7812 7.11179 11.7325 7.17977 11.7046 7.25697L9.55582 13.214C9.52831 13.2902 9.52216 13.3725 9.53804 13.452C9.55391 13.5315 9.59121 13.6051 9.6459 13.6649C9.89802 13.9389 10.0688 14.2777 10.1392 14.6433C10.2096 15.0089 10.1767 15.3869 10.0443 15.735C9.94089 16.0039 9.78073 16.2473 9.57473 16.4487C9.36873 16.6502 9.12174 16.8048 8.85057 16.9021L9.34177 15.5535C9.37498 15.4636 9.39003 15.3679 9.38607 15.2721C9.38211 15.1763 9.35921 15.0823 9.31869 14.9954C9.27817 14.9085 9.22084 14.8305 9.15001 14.7659C9.07917 14.7013 8.99624 14.6513 8.90599 14.619L7.87058 14.2421C7.78064 14.209 7.68502 14.194 7.58925 14.1979C7.49347 14.2019 7.39943 14.2249 7.31256 14.2654C7.22568 14.3059 7.14768 14.3632 7.08306 14.434C7.01844 14.5048 6.96848 14.5877 6.93605 14.6779L6.44445 16.0267C6.27735 15.7381 6.1849 15.4124 6.17545 15.0791C6.16601 14.7457 6.23988 14.4153 6.39037 14.1177C6.54086 13.8201 6.76321 13.5648 7.03729 13.3748C7.31136 13.1849 7.6285 13.0663 7.95998 13.0298C8.0427 13.0208 8.12122 12.9887 8.1866 12.9372C8.25199 12.8858 8.30161 12.817 8.32982 12.7387L10.4662 6.80756C10.4938 6.7305 10.4997 6.6473 10.4831 6.56712C10.4665 6.48695 10.428 6.41293 10.372 6.35322C10.1137 6.07922 9.93775 5.73799 9.86439 5.36863C9.79103 4.99927 9.8232 4.61671 9.95722 4.26478C10.0606 3.9958 10.2209 3.75228 10.4269 3.55082C10.633 3.34936 10.8801 3.19471 11.1513 3.0974" fill="#747474"/>
<path d="M3.62835 6.63184L3.66423 6.59488L3.70011 6.63184L4.20259 7.14955L4.23639 7.18437L4.20259 7.2192L1.90801 9.58333L4.20259 11.9475L4.23639 11.9823L4.20259 12.0171L3.70011 12.5348L3.66423 12.5718L3.62835 12.5348L0.797495 9.61816L0.763696 9.58333L0.797495 9.54851L3.62835 6.63184Z" fill="#747474" stroke="#747474" stroke-width="0.1"/>
<path d="M16.3716 12.5348L16.3358 12.5718L16.2999 12.5348L15.7974 12.0171L15.7636 11.9823L15.7974 11.9475L18.092 9.58332L15.7974 7.21919L15.7636 7.18437L15.7974 7.14954L16.2999 6.63183L16.3358 6.59487L16.3716 6.63183L19.2025 9.5485L19.2363 9.58332L19.2025 9.61815L16.3716 12.5348Z" fill="#747474" stroke="#747474" stroke-width="0.1"/>
</svg>
