<svg width="20" height="20" viewBox="0 0 20 20" fill="none" xmlns="http://www.w3.org/2000/svg">
<mask id="mask0_75_135" style="mask-type:alpha" maskUnits="userSpaceOnUse" x="0" y="0" width="20" height="20">
<rect width="20" height="20" fill="#D9D9D9"/>
</mask>
<g mask="url(#mask0_75_135)">
<path d="M11.6979 10.3732L11.6535 10.4414L11.7112 10.4987L13.1654 11.9428L12.5114 12.5626L11.0894 11.116L11.0339 11.0595L10.9662 11.1006C10.7547 11.229 10.5414 11.3246 10.3261 11.3881C10.1118 11.4514 9.88205 11.4833 9.63624 11.4833C8.97171 11.4833 8.39959 11.25 7.91493 10.7803C7.43163 10.3119 7.19079 9.7391 7.19079 9.05556C7.19079 8.37201 7.43163 7.79921 7.91493 7.33084C8.39959 6.86114 8.97171 6.62778 9.63624 6.62778C10.3008 6.62778 10.8729 6.86114 11.3576 7.33084C11.8409 7.79921 12.0817 8.37201 12.0817 9.05556C12.0817 9.29944 12.0496 9.53072 11.9857 9.74979C11.9218 9.96884 11.826 10.1766 11.6979 10.3732ZM4.0817 13.3889V13.4889H4.1817H15.8181H15.9181V13.3889V5.44444V5.34444H15.8181H4.1817H4.0817V5.44444V13.3889ZM8.53851 10.1467C8.84201 10.448 9.20973 10.6 9.63624 10.6C10.0627 10.6 10.4305 10.448 10.734 10.1467C11.0375 9.84523 11.1908 9.47974 11.1908 9.05556C11.1908 8.63068 11.0339 8.26496 10.7241 7.96372C10.4155 7.66363 10.0515 7.51111 9.63624 7.51111C9.20973 7.51111 8.84201 7.66306 8.53851 7.96446C8.23498 8.26588 8.0817 8.63137 8.0817 9.05556C8.0817 9.47974 8.23498 9.84523 8.53851 10.1467ZM4.1817 14.7333C3.8082 14.7333 3.49108 14.6024 3.22489 14.3381C2.95872 14.0738 2.82715 13.7592 2.82715 13.3889V5.44444C2.82715 5.07418 2.95872 4.75958 3.22489 4.49526C3.49108 4.23092 3.8082 4.1 4.1817 4.1H15.8181C16.1916 4.1 16.5087 4.23092 16.7749 4.49526C17.041 4.75958 17.1726 5.07418 17.1726 5.44444V13.3889C17.1726 13.7592 17.041 14.0738 16.7749 14.3381C16.5087 14.6024 16.1916 14.7333 15.8181 14.7333H4.1817ZM2.09988 16.9V15.6556H17.8999V16.9H2.09988Z" fill="#747474" stroke="white" stroke-width="0.2"/>
</g>
</svg>
