<svg width="24" height="24" viewBox="0 0 24 24" fill="none" xmlns="http://www.w3.org/2000/svg">
<path d="M22.6983 11.8753H20.0001H19.8751V12.0003C19.8751 16.3513 16.3511 19.8753 12.0001 19.8753C10.5111 19.8753 9.12258 19.455 7.93999 18.7372L9.22311 17.4541C10.0523 17.8864 11.0027 18.1253 12.0001 18.1253C15.3792 18.1253 18.1251 15.3794 18.1251 12.0003V11.8753H18.0001H15.3019L19.0001 8.1771L22.6983 11.8753ZM5.87512 12.0003V12.1253H6.00012H8.69835L5.00012 15.8235L1.3019 12.1253H4.00012H4.12512V12.0003C4.12512 7.64936 7.64916 4.12532 12.0001 4.12532C13.4892 4.12532 14.8777 4.54568 16.0603 5.26341L14.7771 6.54653C13.9479 6.11424 12.9975 5.87532 12.0001 5.87532C8.62109 5.87532 5.87512 8.62128 5.87512 12.0003Z" fill="#0076F5" stroke="white" stroke-width="0.25"/>
</svg>
